<svg width="94" height="17" viewBox="0 0 94 17" fill="none" xmlns="http://www.w3.org/2000/svg">
<path d="M8.53125 5.27557C8.45549 4.60322 8.14299 4.08239 7.59375 3.71307C7.04451 3.33902 6.35322 3.15199 5.51989 3.15199C4.9233 3.15199 4.4072 3.24669 3.97159 3.43608C3.53598 3.62074 3.19744 3.87642 2.95597 4.20312C2.71922 4.52509 2.60085 4.89205 2.60085 5.30398C2.60085 5.64962 2.68134 5.94792 2.84233 6.19886C3.00805 6.44981 3.22349 6.66051 3.48864 6.83097C3.75852 6.99669 4.04735 7.13636 4.35511 7.25C4.66288 7.3589 4.95881 7.44886 5.2429 7.51989L6.66335 7.8892C7.12737 8.00284 7.60322 8.15672 8.09091 8.35085C8.5786 8.54498 9.03078 8.80066 9.44744 9.1179C9.86411 9.43513 10.2003 9.82812 10.456 10.2969C10.7164 10.7656 10.8466 11.3267 10.8466 11.9801C10.8466 12.804 10.6335 13.5355 10.2074 14.1747C9.78599 14.8139 9.17282 15.3182 8.3679 15.6875C7.56771 16.0568 6.59943 16.2415 5.46307 16.2415C4.37405 16.2415 3.43182 16.0687 2.63636 15.723C1.84091 15.3774 1.21828 14.8873 0.768466 14.2528C0.318655 13.6136 0.0700758 12.8561 0.0227273 11.9801H2.22443C2.26705 12.5057 2.4375 12.9437 2.7358 13.294C3.03883 13.6397 3.42472 13.8977 3.89347 14.0682C4.36695 14.2339 4.88542 14.3168 5.44886 14.3168C6.06913 14.3168 6.62074 14.2197 7.10369 14.0256C7.59138 13.8267 7.97491 13.5521 8.25426 13.2017C8.53362 12.8466 8.6733 12.4323 8.6733 11.9588C8.6733 11.5279 8.55019 11.1752 8.30398 10.9006C8.0625 10.6259 7.73343 10.3987 7.31676 10.2188C6.90483 10.0388 6.43845 9.88021 5.91761 9.7429L4.19886 9.27415C3.03409 8.95691 2.1108 8.49053 1.42898 7.875C0.751894 7.25947 0.413352 6.44508 0.413352 5.43182C0.413352 4.59375 0.640625 3.86222 1.09517 3.23722C1.54972 2.61222 2.16525 2.12689 2.94176 1.78125C3.71828 1.43087 4.59422 1.25568 5.5696 1.25568C6.55445 1.25568 7.4233 1.4285 8.17614 1.77415C8.93371 2.11979 9.5303 2.59564 9.96591 3.2017C10.4015 3.80303 10.6288 4.49432 10.6477 5.27557H8.53125ZM13.2987 16V5.09091H15.4222V16H13.2987ZM14.3711 3.40767C14.0018 3.40767 13.6845 3.28456 13.4194 3.03835C13.159 2.7874 13.0288 2.48911 13.0288 2.14347C13.0288 1.79309 13.159 1.49479 13.4194 1.24858C13.6845 0.997632 14.0018 0.872159 14.3711 0.872159C14.7404 0.872159 15.0553 0.997632 15.3157 1.24858C15.5808 1.49479 15.7134 1.79309 15.7134 2.14347C15.7134 2.48911 15.5808 2.7874 15.3157 3.03835C15.0553 3.28456 14.7404 3.40767 14.3711 3.40767ZM23.3714 5.09091V6.79545H17.4126V5.09091H23.3714ZM19.0107 2.47727H21.1342V12.7969C21.1342 13.2088 21.1958 13.5189 21.3189 13.7273C21.442 13.9309 21.6006 14.0705 21.7947 14.1463C21.9936 14.2173 22.209 14.2528 22.4411 14.2528C22.6115 14.2528 22.7607 14.241 22.8885 14.2173C23.0163 14.1937 23.1158 14.1747 23.1868 14.1605L23.5703 15.9148C23.4472 15.9621 23.272 16.0095 23.0447 16.0568C22.8175 16.1089 22.5334 16.1373 22.1925 16.142C21.6338 16.1515 21.1129 16.0521 20.63 15.8438C20.147 15.6354 19.7564 15.3134 19.4581 14.8778C19.1598 14.4422 19.0107 13.8954 19.0107 13.2372V2.47727ZM30.305 16.2202C29.2302 16.2202 28.3046 15.9905 27.5281 15.5312C26.7563 15.0672 26.1597 14.4162 25.7383 13.5781C25.3216 12.7353 25.1133 11.7481 25.1133 10.6165C25.1133 9.49905 25.3216 8.5142 25.7383 7.66193C26.1597 6.80966 26.7468 6.14441 27.4996 5.66619C28.2572 5.18797 29.1426 4.94886 30.1559 4.94886C30.7714 4.94886 31.368 5.05066 31.9457 5.25426C32.5233 5.45786 33.0418 5.77746 33.5011 6.21307C33.9603 6.64867 34.3226 7.21449 34.5877 7.91051C34.8529 8.6018 34.9854 9.44223 34.9854 10.4318V11.1847H26.3136V9.59375H32.9045C32.9045 9.03504 32.7908 8.54025 32.5636 8.10938C32.3363 7.67377 32.0167 7.33049 31.6048 7.07955C31.1976 6.8286 30.7193 6.70312 30.1701 6.70312C29.5735 6.70312 29.0527 6.84991 28.6076 7.14347C28.1673 7.43229 27.8263 7.81108 27.5849 8.27983C27.3481 8.74384 27.2298 9.24811 27.2298 9.79261V11.0355C27.2298 11.7647 27.3576 12.3849 27.6133 12.8963C27.8737 13.4077 28.2359 13.7983 28.6999 14.0682C29.1639 14.3333 29.7061 14.4659 30.3263 14.4659C30.7288 14.4659 31.0958 14.4091 31.4272 14.2955C31.7586 14.1771 32.0451 14.0019 32.2866 13.7699C32.5281 13.5379 32.7127 13.2514 32.8406 12.9105L34.8505 13.2727C34.6895 13.8646 34.4007 14.383 33.984 14.8281C33.5721 15.2685 33.0536 15.6117 32.4286 15.858C31.8084 16.0994 31.1005 16.2202 30.305 16.2202ZM44.7582 9.52273V16H42.6346V5.09091H44.6729V6.86648H44.8079C45.0588 6.28883 45.4518 5.82481 45.9869 5.47443C46.5266 5.12405 47.2061 4.94886 48.0252 4.94886C48.7686 4.94886 49.4196 5.10511 49.9783 5.41761C50.5371 5.72538 50.9703 6.18466 51.2781 6.79545C51.5858 7.40625 51.7397 8.16146 51.7397 9.06108V16H49.6161V9.31676C49.6161 8.52604 49.4102 7.90814 48.9982 7.46307C48.5863 7.01326 48.0205 6.78835 47.3008 6.78835C46.8084 6.78835 46.3704 6.89489 45.9869 7.10795C45.6081 7.32102 45.3074 7.63352 45.0849 8.04545C44.8671 8.45265 44.7582 8.94508 44.7582 9.52273ZM57.7624 16.2415C57.0711 16.2415 56.4461 16.1136 55.8874 15.858C55.3287 15.5975 54.886 15.2211 54.5593 14.7287C54.2373 14.2363 54.0763 13.6326 54.0763 12.9176C54.0763 12.3021 54.1947 11.7955 54.4315 11.3977C54.6682 11 54.9878 10.6851 55.3903 10.4531C55.7927 10.2211 56.2425 10.0459 56.7397 9.92756C57.2369 9.80919 57.7435 9.71922 58.2596 9.65767C58.913 9.58191 59.4433 9.52036 59.8505 9.47301C60.2577 9.42093 60.5536 9.33807 60.7383 9.22443C60.9229 9.1108 61.0153 8.92614 61.0153 8.67045V8.62074C61.0153 8.00047 60.8401 7.51989 60.4897 7.17898C60.1441 6.83807 59.628 6.66761 58.9414 6.66761C58.2264 6.66761 57.663 6.82623 57.2511 7.14347C56.8439 7.45597 56.5621 7.80398 56.4059 8.1875L54.4102 7.73295C54.6469 7.07008 54.9925 6.53504 55.4471 6.12784C55.9064 5.71591 56.4343 5.41761 57.0309 5.23295C57.6275 5.04356 58.2549 4.94886 58.913 4.94886C59.3486 4.94886 59.8103 5.00095 60.2979 5.10511C60.7904 5.20455 61.2496 5.3892 61.6758 5.65909C62.1067 5.92898 62.4594 6.31487 62.734 6.81676C63.0086 7.31392 63.146 7.96023 63.146 8.75568V16H61.0721V14.5085H60.9869C60.8496 14.7831 60.6436 15.053 60.369 15.3182C60.0943 15.5833 59.7416 15.8035 59.3107 15.9787C58.8799 16.1539 58.3638 16.2415 57.7624 16.2415ZM58.2241 14.5369C58.8112 14.5369 59.3131 14.4209 59.7298 14.1889C60.1512 13.9569 60.4708 13.6539 60.6886 13.2798C60.9111 12.901 61.0224 12.4962 61.0224 12.0653V10.6591C60.9466 10.7348 60.7998 10.8059 60.582 10.8722C60.369 10.9337 60.1251 10.9882 59.8505 11.0355C59.5759 11.0781 59.3084 11.1184 59.0479 11.1562C58.7875 11.1894 58.5697 11.2178 58.3945 11.2415C57.9826 11.2936 57.6062 11.3812 57.2653 11.5043C56.9291 11.6274 56.6592 11.8049 56.4556 12.0369C56.2567 12.2642 56.1573 12.5672 56.1573 12.946C56.1573 13.4716 56.3514 13.8693 56.7397 14.1392C57.128 14.4044 57.6228 14.5369 58.2241 14.5369ZM65.9744 16V5.09091H68.0128V6.86648H68.1477C68.375 6.26515 68.7467 5.7964 69.2628 5.46023C69.7789 5.11932 70.3968 4.94886 71.1165 4.94886C71.8456 4.94886 72.4564 5.11932 72.9489 5.46023C73.446 5.80114 73.813 6.26989 74.0497 6.86648H74.1634C74.4238 6.28409 74.8381 5.82008 75.4062 5.47443C75.9744 5.12405 76.6515 4.94886 77.4375 4.94886C78.4271 4.94886 79.2344 5.259 79.8594 5.87926C80.4891 6.49953 80.804 7.43466 80.804 8.68466V16H78.6804V8.88352C78.6804 8.14489 78.4792 7.60985 78.0767 7.27841C77.6742 6.94697 77.1937 6.78125 76.6349 6.78125C75.9437 6.78125 75.4062 6.99432 75.0227 7.42045C74.6392 7.84186 74.4474 8.384 74.4474 9.04688V16H72.331V8.74858C72.331 8.15672 72.1463 7.68087 71.777 7.32102C71.4077 6.96117 70.9271 6.78125 70.3352 6.78125C69.9328 6.78125 69.5611 6.88778 69.2202 7.10085C68.884 7.30919 68.6117 7.60038 68.4034 7.97443C68.1998 8.34848 68.098 8.78172 68.098 9.27415V16H65.9744ZM88.3519 16.2202C87.2771 16.2202 86.3514 15.9905 85.5749 15.5312C84.8031 15.0672 84.2066 14.4162 83.7852 13.5781C83.3685 12.7353 83.1602 11.7481 83.1602 10.6165C83.1602 9.49905 83.3685 8.5142 83.7852 7.66193C84.2066 6.80966 84.7937 6.14441 85.5465 5.66619C86.3041 5.18797 87.1895 4.94886 88.2028 4.94886C88.8183 4.94886 89.4149 5.05066 89.9925 5.25426C90.5702 5.45786 91.0887 5.77746 91.5479 6.21307C92.0072 6.64867 92.3694 7.21449 92.6346 7.91051C92.8997 8.6018 93.0323 9.44223 93.0323 10.4318V11.1847H84.3604V9.59375H90.9513C90.9513 9.03504 90.8377 8.54025 90.6104 8.10938C90.3832 7.67377 90.0636 7.33049 89.6516 7.07955C89.2444 6.8286 88.7662 6.70312 88.217 6.70312C87.6204 6.70312 87.0996 6.84991 86.6545 7.14347C86.2141 7.43229 85.8732 7.81108 85.6317 8.27983C85.395 8.74384 85.2766 9.24811 85.2766 9.79261V11.0355C85.2766 11.7647 85.4045 12.3849 85.6602 12.8963C85.9206 13.4077 86.2828 13.7983 86.7468 14.0682C87.2108 14.3333 87.753 14.4659 88.3732 14.4659C88.7757 14.4659 89.1426 14.4091 89.4741 14.2955C89.8055 14.1771 90.092 14.0019 90.3335 13.7699C90.5749 13.5379 90.7596 13.2514 90.8874 12.9105L92.8974 13.2727C92.7364 13.8646 92.4476 14.383 92.0309 14.8281C91.619 15.2685 91.1005 15.6117 90.4755 15.858C89.8552 16.0994 89.1474 16.2202 88.3519 16.2202Z" fill="black"/>
</svg>
